PathFileType	4	(X/Y/Z)	Walk8.trc
DataRate	CameraRate	NumFrames	NumMarkers	Units	OrigDataRate	OrigDataStartFrame	OrigNumFrames
200.000000	200.000000	4	59	mm	200.000000	306	530
Frame#	Times		LBHD		C7		T10		LPSI		RPSI		RCAR		LElbowM		LTB1		RWRR		LLFC		LUA1		LFHD		RUA1		LACR1		LCAR		RWRU		RFA1		RElbowM		RTH3		LWRU		LFA1		CLAV		STRN		RACR1		RBack		RTB1		RBHD		RTH2		RCAL		RTB4		LWRR		RToe		RTB3		RFHD		RMT1		RTB2		RTH4		RMT5		RElbow		RTH1		LTB3		LElbow		LMT1		RMMAL		LTH1		LTH3		LTH4		RASI		RLFC		LTH2		LCAL		LLMAL		LMT5		LASI		RLMAL		LTB2		LTB4		LToe		LMMAL
			X1	Y1	Z1	X2	Y2	Z2	X3	Y3	Z3	X4	Y4	Z4	X5	Y5	Z5	X6	Y6	Z6	X7	Y7	Z7	X8	Y8	Z8	X9	Y9	Z9	X10	Y10	Z10	X11	Y11	Z11	X12	Y12	Z12	X13	Y13	Z13	X14	Y14	Z14	X15	Y15	Z15	X16	Y16	Z16	X17	Y17	Z17	X18	Y18	Z18	X19	Y19	Z19	X20	Y20	Z20	X21	Y21	Z21	X22	Y22	Z22	X23	Y23	Z23	X24	Y24	Z24	X25	Y25	Z25	X26	Y26	Z26	X27	Y27	Z27	X28	Y28	Z28	X29	Y29	Z29	X30	Y30	Z30	X31	Y31	Z31	X32	Y32	Z32	X33	Y33	Z33	X34	Y34	Z34	X35	Y35	Z35	X36	Y36	Z36	X37	Y37	Z37	X38	Y38	Z38	X39	Y39	Z39	X40	Y40	Z40	X41	Y41	Z41	X42	Y42	Z42	X43	Y43	Z43	X44	Y44	Z44	X45	Y45	Z45	X46	Y46	Z46	X47	Y47	Z47	X48	Y48	Z48	X49	Y49	Z49	X50	Y50	Z50	X51	Y51	Z51	X52	Y52	Z52	X53	Y53	Z53	X54	Y54	Z54	X55	Y55	Z55	X56	Y56	Z56	X57	Y57	Z57	X58	Y58	Z58	X59	Y59	Z59

306	1.53	-229.46	1487.2	-60.425	-238.57	1355.5	2.5175	-264.01	1091.9	-14.64	-290.86	906.48	-53.931	-300.11	905.34	45.678	-127.26	737.44	311.27	-214.68	981.4	-221.42	-176.7	338.8	-41.348	-94.221	774.21	268.33	-188.03	451.65	-126.62	-145.8	1134.7	-254.5	-58.363	1513.8	-42.093	-170.07	1134.1	232.02	-148.67	1301.2	-160.63	-47.99	753.1	-333.98	-167.05	758.88	268.14	-196.43	866.59	276.21	-231.8	956.07	181.94	-56.74	567.66	171.77	-103.75	786.57	-333.89	-144.91	901.69	-315.46	-112.37	1280.1	8.9947	-48.98	1174.3	4.5003	-168.56	1292	157.48	-265.12	1253.6	125.49	4.4684	348.37	88.079	-229.61	1493.7	62.889	-26.448	688.74	169	-166.03	80.413	85.628	-28.623	262.99	88.317	-51.697	787.76	-280.19	39.883	52.253	112.42	-48.269	172	84.782	-53.31	1522.9	35.022	-7.1317	74.86	87.719	-61.953	270.59	152.06	-92.721	654.88	190.38	-38.049	58.692	132.79	-200.32	993.36	265.28	-138.79	736.89	215.78	-209.1	159.41	-26.931	-182.29	1019.8	-283.37	-160.53	46.735	-17.13	-91.018	105.6	45.754	-123.08	738.28	-185.12	-146.06	557.9	-133.55	-131.35	648.79	-157.13	-84.097	876.1	144.38	-8.9933	479.87	163.31	-77.007	658.15	-109.06	-315.04	33.735	-32.203	-265.54	65.811	-70.549	-182.42	34.179	-75.083	-73.074	845.06	-152.81	-108.69	99.153	124.05	-218.36	248.96	-104.42	-200.92	250.03	-36.49	-102.69	23.648	-26.855	-252.02	69.808	9.1602
307	1.535	-223.58	1486.5	-59.915	-232.86	1354.8	2.8952	-258.54	1091.2	-14.424	-285.62	905.87	-53.231	-294.49	904.54	46.352	-123.63	736.62	312	-208.06	980.63	-221.46	-174.48	338.18	-41.088	-90.302	773.33	269.28	-184.95	451.2	-126.43	-139.23	1134	-254.15	-52.463	1512.9	-41.539	-165.23	1133.2	232.42	-142.72	1300.5	-160.14	-40.358	752.88	-333.55	-163.13	757.99	268.52	-192.43	865.84	276.6	-227.22	955.35	182.17	-49.645	567.33	171.3	-96.202	786.18	-333.61	-137.81	901.15	-315.3	-106.75	1279.3	9.5259	-43.412	1173.4	5.0477	-163.2	1291.1	157.92	-259.76	1252.8	125.63	14.375	348.45	87.806	-223.74	1493	63.397	-19.834	688.55	168.08	-147.04	75.161	86.61	-15.786	262.03	88.291	-44.277	787.56	-279.76	59.665	53.206	112.49	-32.38	170.46	85.131	-47.397	1522	35.526	11.935	74.411	88.012	-49.166	268.72	152.14	-85.739	654.44	190.23	-18.35	57.407	133.19	-196.04	992.63	265.64	-129.86	736.28	215.23	-208.21	159.04	-26.734	-175.6	1019.1	-283.27	-160.47	46.663	-17.028	-73.004	102.53	46.265	-118.21	737.44	-184.92	-142.27	557.22	-133.28	-127.05	648.03	-156.91	-78.281	875.3	144.98	-2.1301	479.52	162.66	-72.794	657.14	-108.68	-315.04	33.931	-32.16	-265.32	65.839	-70.454	-182.4	34.157	-75.032	-64.539	844.67	-153.21	-90.224	95.694	124.73	-216.71	248.66	-104.22	-199.51	249.6	-36.186	-102.59	23.668	-26.926	-251.88	69.721	9.2713
308	1.54	-217.7	1485.7	-59.393	-227.16	1354.1	3.2948	-253.06	1090.4	-14.175	-280.36	905.24	-52.511	-288.82	903.7	47.042	-119.95	735.78	312.72	-201.46	979.84	-221.48	-172.22	337.55	-40.839	-86.348	772.43	270.22	-181.85	450.74	-126.23	-132.65	1133.4	-253.77	-46.573	1511.9	-40.977	-160.39	1132.3	232.85	-136.77	1299.8	-159.64	-32.722	752.64	-333.08	-159.18	757.1	268.91	-188.39	865.07	277	-222.65	954.6	182.45	-42.759	566.86	170.86	-88.636	785.76	-333.28	-130.69	900.58	-315.09	-101.11	1278.4	10.07	-37.826	1172.6	5.5939	-157.82	1290.2	158.36	-254.4	1252	125.81	24.11	348.53	87.547	-217.88	1492.3	63.917	-13.32	688.2	167.15	-127.96	70.159	87.614	-3.0663	261.15	88.275	-36.861	787.34	-279.29	79.358	54.397	112.49	-16.553	169.09	85.48	-41.493	1521	36.035	30.946	74.187	88.246	-36.446	266.91	152.24	-78.884	653.91	190.1	1.3365	56.395	133.56	-191.73	991.88	266.03	-120.97	735.62	214.7	-207.3	158.66	-26.547	-168.91	1018.5	-283.15	-160.4	46.598	-16.932	-54.995	99.695	46.763	-113.39	736.58	-184.73	-138.5	556.53	-133.03	-122.78	647.25	-156.7	-72.403	874.47	145.59	4.5212	479.05	162.08	-68.567	656.1	-108.35	-315.04	34.139	-32.107	-265.1	65.876	-70.356	-182.39	34.136	-74.979	-56.445	844.31	-153.6	-71.707	92.474	125.39	-215.05	248.37	-104.02	-198.05	249.16	-35.9	-102.5	23.687	-27.001	-251.74	69.65	9.3779
309	1.545	-211.84	1484.9	-58.858	-221.46	1353.3	3.7172	-247.56	1089.6	-13.894	-275.07	904.59	-51.775	-283.1	902.83	47.748	-116.22	734.93	313.44	-194.87	979.05	-221.48	-169.92	336.9	-40.604	-82.354	771.53	271.15	-178.75	450.27	-126.04	-126.07	1132.7	-253.35	-40.695	1510.9	-40.406	-155.52	1131.4	233.29	-130.84	1299.1	-159.12	-25.084	752.38	-332.56	-155.21	756.19	269.33	-184.32	864.29	277.43	-218.08	953.83	182.77	-36.083	566.26	170.46	-81.061	785.31	-332.89	-123.57	900	-314.85	-95.473	1277.6	10.627	-32.221	1171.7	6.1393	-152.41	1289.3	158.82	-249.02	1251.3	126	33.668	348.61	87.298	-212.02	1491.5	64.449	-6.9086	687.69	166.24	-108.83	65.429	88.65	9.5189	260.36	88.266	-29.451	787.09	-278.77	98.93	55.833	112.36	-0.81586	167.9	85.823	-35.599	1520.1	36.553	49.864	74.198	88.399	-23.8	265.18	152.37	-72.161	653.28	189.98	20.981	55.669	133.86	-187.38	991.12	266.45	-112.25	734.91	214.22	-206.36	158.27	-26.372	-162.21	1017.8	-283	-160.32	46.538	-16.841	-37.036	97.094	47.251	-108.6	735.72	-184.55	-134.73	555.83	-132.79	-118.54	646.45	-156.51	-66.463	873.6	146.22	10.968	478.45	161.57	-64.326	655.05	-108.09	-315.05	34.362	-32.043	-264.88	65.926	-70.253	-182.38	34.113	-74.924	-48.82	843.98	-153.99	-53.17	89.514	126.05	-213.39	248.07	-103.82	-196.55	248.72	-35.634	-102.41	23.707	-27.08	-251.58	69.596	9.4833
